# xmcd CD database file
#
# Track frame offsets:
#	150
#	47436
#	108927
#	153034
#	179381
#	197521
#	255048
#
# Disc length: 4469 seconds
#
# Revision: 0
# Processed by: cddbd v1.5.2PL0 Copyright (c) Steve Scherf et al.
# Submitted via: Feurio! 1.68 - http://www.feurio.com
#
DISCID=43117307
DTITLE=Rory Gallagher - Cradle Rock [CD2]
DYEAR=2015
DGENRE=Blues
TTITLE0=Hands Off
TTITLE1=Laundromat
TTITLE2=All Around Man
TTITLE3=Too Much Alcohol
TTITLE4=Pistol Slapper Blues
TTITLE5=Who's That Coming
TTITLE6=Bullfrog Blues
EXTD=
EXTT0=
EXTT1=
EXTT2=
EXTT3=
EXTT4=
EXTT5=
EXTT6=
PLAYORDER=
